<?xml version="1.0" encoding="UTF-8" standalone="no"?>
<!-- Created with Inkscape (http://www.inkscape.org/) -->

<svg
   version="1.1"
   id="svg1"
   width="158.08"
   height="99.519997"
   viewBox="0 0 158.08 99.519997"
   sodipodi:docname="SurEtBon.svg"
   inkscape:version="1.3.2 (091e20e, 2023-11-25, custom)"
   xmlns:inkscape="http://www.inkscape.org/namespaces/inkscape"
   xmlns:sodipodi="http://sodipodi.sourceforge.net/DTD/sodipodi-0.dtd"
   xmlns="http://www.w3.org/2000/svg"
   xmlns:svg="http://www.w3.org/2000/svg">
  <defs
     id="defs1" />
  <sodipodi:namedview
     id="namedview1"
     pagecolor="#ffffff"
     bordercolor="#000000"
     borderopacity="0.25"
     inkscape:showpageshadow="2"
     inkscape:pageopacity="0.0"
     inkscape:pagecheckerboard="0"
     inkscape:deskcolor="#d1d1d1"
     showgrid="false"
     inkscape:zoom="6.9395242"
     inkscape:cx="79.040001"
     inkscape:cy="49.715224"
     inkscape:window-width="1920"
     inkscape:window-height="1010"
     inkscape:window-x="2873"
     inkscape:window-y="-6"
     inkscape:window-maximized="1"
     inkscape:current-layer="svg1" />
  <path
     style="display:inline;fill:#000000"
     d="m 26.843959,29.290679 c -0.313576,-0.507376 -0.608183,-15.353988 -0.333708,-16.817066 0.243086,-1.29576 1.022376,-1.798584 2.27026,-1.464849 0.614941,0.164461 0.985129,0.523102 1.140814,1.10523 0.2806,1.049202 0.521087,16.733311 0.260569,16.993847 -0.430758,0.430786 -3.094518,0.576696 -3.337935,0.182838 z"
     id="path26" />
  <path
     id="path19"
     style="fill:#000000"
     d="M 76.746094 5.0488281 C 71.85809 5.0320242 66.92729 6.1268165 62.380859 8.4023438 C 54.442698 12.375462 48.101791 20.308066 46.318359 28.496094 C 45.588028 31.849169 45.685273 38.696123 46.507812 41.880859 C 47.314315 45.003503 49.066604 49.341508 50.441406 51.615234 C 51.829879 53.91157 55.34145 57.691067 57.8125 59.548828 C 61.372882 62.225562 68.130031 65.139079 72.287109 65.789062 C 74.49081 66.133624 81.010369 65.847314 84.248047 65.263672 C 88.687479 64.463395 91.56199 63.20423 96.382812 59.951172 C 99.383023 57.926651 101.55373 55.75441 103.32812 53 C 106.93669 47.398394 108.56832 41.003749 108.1875 33.955078 C 107.77074 26.241364 104.88704 20.111223 98.845703 14.095703 C 92.919618 8.1949317 84.892767 5.0768347 76.746094 5.0488281 z M 76.447266 9.0078125 C 81.452749 8.9876515 84.50779 9.6865205 88.927734 11.865234 C 92.584864 13.667936 94.879313 15.482896 97.714844 18.810547 C 101.81156 23.618277 103.78788 28.593216 103.97461 34.576172 C 104.23744 42.997893 101.76236 49.760675 96.576172 54.796875 C 93.091214 58.181044 86.913486 60.967008 81.429688 61.626953 C 75.636545 62.324125 70.186643 61.429032 64.962891 58.921875 C 61.013182 57.026199 58.470989 55.04672 55.953125 51.910156 C 52.069494 47.072225 50.361289 42.221767 50.130859 35.375 C 50.006558 31.681629 50.084991 30.667422 50.673828 28.373047 C 52.516682 21.192468 58.294825 14.237266 64.607422 11.601562 C 69.392315 9.6037224 72.032494 9.0255925 76.447266 9.0078125 z " />
  <path
     id="path24"
     style="fill:#0a8b65;fill-opacity:1"
     d="M 77.652344 14.210938 C 75.929356 14.172119 73.420076 15.112357 72.207031 16.251953 C 70.150367 18.184088 69.1263 21.685847 69.84375 24.339844 C 70.502075 26.775124 71.877238 28.481254 74.064453 29.574219 C 76.953557 31.01792 78.525512 30.95514 81.005859 29.298828 C 83.848957 27.40028 85.248047 24.961735 85.248047 21.902344 C 85.248047 21.056889 85.075504 19.962985 84.865234 19.470703 C 83.645906 16.616029 80.432823 14.273577 77.652344 14.210938 z M 77.587891 17.96875 C 78.637163 17.977503 79.488935 18.513612 80.367188 19.664062 C 81.6628 21.361225 81.708873 22.622724 80.541016 24.423828 C 79.164417 26.546859 77.392135 26.771789 75.273438 25.09375 C 73.991402 24.078359 73.23362 22.353732 73.537109 21.144531 C 73.840288 19.936571 75.274113 18.461589 76.464844 18.132812 C 76.866691 18.021857 77.238133 17.965832 77.587891 17.96875 z " />
  <path
     id="path21"
     style="fill:#0a8b65;fill-opacity:1"
     d="M 59.230469 29.443359 C 58.980453 29.440623 58.790878 29.444211 58.681641 29.455078 C 58.244692 29.498548 57.567542 29.551759 57.177734 29.574219 C 56.151893 29.63333 55.693745 30.767242 55.734375 33.136719 C 55.773238 35.403157 56.862242 39.028719 58.177734 41.273438 C 59.281844 43.15746 61.938423 45.533205 63.925781 46.412109 C 66.561924 47.577936 70.937976 48.354344 72.378906 47.912109 C 73.025848 47.713562 73.67357 47.67357 73.824219 47.824219 C 74.299382 48.299381 74.664611 50.463058 74.882812 54.095703 C 74.999102 56.031701 75.206217 57.759547 75.34375 57.935547 C 75.481282 58.111547 76.256802 58.298359 77.066406 58.349609 C 79.008607 58.472558 79.123473 58.12188 78.917969 52.736328 L 78.755859 48.496094 L 81.294922 48.496094 C 89.30963 48.496094 95.7202 43.465584 97.609375 35.695312 C 98.077003 33.771939 98.173903 31.268282 97.802734 30.689453 C 97.264653 29.850327 91.18547 30.210009 87.996094 31.269531 C 83.777529 32.670954 80.154158 35.352933 78.777344 38.09375 C 78.063746 39.514304 77.28972 40.496094 76.882812 40.496094 C 76.736467 40.496094 76.117509 39.44497 75.507812 38.160156 C 74.277969 35.568508 73.31429 34.429182 70.791016 32.585938 C 68.152965 30.65885 66.012302 29.888934 62.529297 29.615234 C 61.269779 29.516258 59.980517 29.451569 59.230469 29.443359 z M 59.619141 33.136719 L 61.496094 33.136719 C 64.570083 33.136719 66.095803 33.853352 68.740234 36.541016 C 70.389412 38.217154 71.414853 39.612839 72.240234 41.304688 C 72.882376 42.620937 73.40625 43.842083 73.40625 44.017578 C 73.40625 44.462198 70.769582 44.359105 68.287109 43.818359 C 63.700803 42.819346 60.778938 39.540792 59.835938 34.335938 L 59.619141 33.136719 z M 93.212891 33.775391 C 93.825209 33.775391 93.59251 35.788138 92.777344 37.539062 C 90.50359 42.422943 87.633757 44.563644 82.662109 45.085938 C 81.680784 45.189029 80.651872 45.360551 80.375 45.466797 C 79.570332 45.775577 79.486428 45.207548 80.125 43.78125 C 81.433534 40.858548 85.352716 36.650608 88.080078 35.240234 C 88.939043 34.796046 92.514983 33.775391 93.212891 33.775391 z " />
  <path
     id="path17"
     style="fill:#000000"
     d="M 125.0918 10.431641 C 122.11854 10.462164 119.22731 12.623102 117.5332 16.359375 C 116.49099 18.65792 115.79678 23.154871 116.09375 25.681641 C 116.46465 28.837418 118.97816 32.929957 121.53711 34.542969 C 122.82676 35.355888 123.00975 35.610766 123.03125 36.623047 C 123.04471 37.257524 123.09668 37.99186 123.14648 38.255859 C 123.19633 38.519859 123.33647 42.552803 123.45703 47.216797 C 123.90267 64.456742 123.96319 65.19105 125.01953 65.9375 C 126.00473 66.633686 127.22716 66.41648 127.74023 65.455078 C 128.069 64.839066 128.12547 63.440683 127.98828 59.375 C 127.12615 33.824453 127.12693 35.565546 127.98047 35.443359 C 128.33954 35.391958 129.7066 34.455879 131.01953 33.363281 C 134.12236 30.781168 135.14145 28.865487 135.15625 25.587891 C 135.18348 19.57303 132.00592 13.108102 128.05078 11.132812 C 127.08254 10.649249 126.08288 10.421466 125.0918 10.431641 z M 125.3457 14.396484 C 126.36123 14.419104 127.19096 15.037742 128.26172 16.412109 C 129.82423 18.417655 130.74356 20.995602 130.92969 23.902344 C 131.12448 26.9444 130.48619 28.824901 128.7207 30.419922 C 127.66896 31.370103 127.25476 31.535156 125.94336 31.535156 C 124.63512 31.535156 124.1988 31.36185 123.05273 30.380859 C 119.58046 27.408721 118.96869 22.433361 121.4375 17.240234 C 122.2657 15.498106 122.54576 15.200284 123.80664 14.71875 C 124.3843 14.498141 124.8841 14.386203 125.3457 14.396484 z " />
  <path
     style="fill:#000000"
     d="m 27.428102,67.053662 c -0.384494,-0.154916 -0.861224,-0.584633 -1.059399,-0.954926 -0.242498,-0.453112 -0.411884,-4.984535 -0.518017,-13.85805 -0.08673,-7.251634 -0.220174,-13.49056 -0.296531,-13.864281 -0.0783,-0.383211 -0.56929,-0.857793 -1.126049,-1.08841 -1.855065,-0.768393 -3.74503,-3.029643 -4.455946,-5.33132 -0.612015,-1.981476 -0.637734,-2.63389 -0.443957,-11.26205 0.116859,-5.203318 0.342089,-9.331477 0.521519,-9.558727 0.430965,-0.545826 2.311253,-0.505845 2.780127,0.05911 0.272132,0.327899 0.397651,3.094446 0.439183,9.68 0.05714,9.060845 0.0713,9.243836 0.815875,10.543163 0.969601,1.692016 2.886964,2.819121 4.382788,2.576382 1.680711,-0.272741 3.961258,-2.01609 4.637672,-3.545236 0.535894,-1.211478 0.572292,-2.053914 0.418803,-9.69339 -0.193836,-9.647632 -0.166126,-9.787922 1.903581,-9.637427 1.215817,0.08841 1.373136,0.200759 1.704631,1.217395 0.202822,0.622018 0.468677,4.696234 0.59793,9.163232 0.284997,9.849577 0.167112,10.402642 -2.863735,13.435399 -1.076569,1.077248 -2.724294,2.347247 -3.66161,2.822221 l -1.70421,0.863589 0.180785,1.817779 c 0.09943,0.999778 0.279558,7.095143 0.400281,13.545255 l 0.219497,11.727477 -0.832523,0.832523 c -0.904667,0.904667 -1.001668,0.928923 -2.040695,0.510289 z"
     id="path16" />
  <path
     id="path11"
     style="fill:#000000"
     d="M 124.22852 76.669922 C 123.20951 76.664319 122.18597 76.780275 121.36133 77.027344 C 118.62738 77.846455 116.37823 80.731899 116.06836 83.816406 C 115.76616 86.824483 117.79891 90.555038 120.49219 91.933594 C 122.32623 92.872347 126.05814 92.926802 128 92.044922 C 129.6484 91.296317 131.57112 89.395123 132.20312 87.888672 C 133.68247 84.36251 131.39007 78.949585 127.71094 77.279297 C 126.84195 76.884785 125.53866 76.677126 124.22852 76.669922 z M 123.92773 79.902344 C 124.14742 79.898066 124.37318 79.905602 124.60352 79.927734 C 126.4604 80.106157 127.60237 80.900367 128.44336 82.597656 C 129.68639 85.106334 129.03393 87.70045 126.88477 88.796875 C 125.56333 89.471021 123.66884 89.623706 122.52734 89.148438 C 121.62984 88.774756 120.23235 87.224191 119.82812 86.154297 C 118.60376 82.913762 120.63252 79.966508 123.92773 79.902344 z " />
  <path
     style="display:inline;fill:#000000"
     d="m 138.25573,90.815895 c -0.1122,-1.188 -0.20502,-4.788 -0.20627,-8 l -0.002,-5.84 h 1.22468 c 1.16184,0 1.37119,0.173289 4.08,3.377119 1.57043,1.857415 3.21532,3.86804 3.65532,4.468057 1.4042,1.914863 1.57217,1.536955 1.36703,-3.075593 -0.20834,-4.68438 -0.17953,-4.756138 1.91297,-4.764683 l 1.2,-0.0049 0.0623,4.24 c 0.0343,2.332 0.0703,5.891351 0.08,7.909668 l 0.0177,3.669667 -1.28,0.0961 c -1.1874,0.08915 -1.34857,-0.0027 -2.22793,-1.269667 -1.78906,-2.57767 -6.35036,-8.245769 -6.63564,-8.245769 -0.16425,0 -0.19154,2.036832 -0.0643,4.8 l 0.22104,4.8 H 140.06031 138.46 Z"
     id="path10" />
  <path
     id="path7"
     style="display:inline;fill:#000000"
     d="M 98.591797 76.435547 L 98.828125 82.546875 C 98.958175 85.907269 99.079403 89.60905 99.095703 90.773438 L 99.125 92.890625 L 103.58594 92.757812 C 108.51809 92.612652 109.73957 92.244149 111.25977 90.4375 C 112.89099 88.498894 112.69852 86.924964 110.60742 85.091797 L 109.46289 84.087891 L 110.1543 83.208984 C 111.4929 81.507238 110.85285 78.643305 108.87109 77.472656 C 107.97904 76.945708 106.88408 76.817886 100.95898 76.544922 L 98.591797 76.435547 z M 102.76172 79.535156 C 103.46315 79.535156 104.71807 79.62832 105.54883 79.742188 C 106.76608 79.909029 107.11768 80.105233 107.36133 80.746094 C 107.79422 81.884677 107.44932 82.63096 106.30664 83.029297 C 105.75957 83.220007 104.54135 83.375 103.59961 83.375 C 101.92696 83.375 101.88672 83.353785 101.88672 82.455078 C 101.88672 81.949079 101.7975 81.085156 101.6875 80.535156 C 101.49027 79.548977 101.50401 79.535156 102.76172 79.535156 z M 103.89844 86.021484 C 104.26637 86.022317 104.71362 86.044427 105.25977 86.076172 C 107.17865 86.187706 107.89024 86.358694 108.19922 86.78125 C 109.09864 88.011274 108.55524 89.066892 106.81445 89.470703 C 106.12871 89.629777 104.81072 89.763378 103.88672 89.767578 L 102.20703 89.775391 L 102.21289 88.255859 C 102.21881 86.421907 102.30408 86.017878 103.89844 86.021484 z " />
  <path
     id="path5"
     style="fill:#000000"
     d="M 43.941406 76.65625 L 44.017578 82.496094 C 44.058695 85.708091 44.146734 89.462801 44.214844 90.839844 L 44.339844 93.34375 L 45.673828 93.123047 C 46.407466 93.001701 47.1269 92.831211 47.273438 92.744141 C 47.419977 92.657071 47.492134 91.629564 47.433594 90.460938 L 47.328125 88.335938 L 48.892578 88.15625 L 50.458984 87.976562 L 52.189453 90.660156 C 53.920459 93.343435 53.920887 93.343552 55.103516 93.171875 C 55.754039 93.077441 56.550177 92.994881 56.871094 92.988281 C 57.383556 92.977666 57.327138 92.752751 56.40625 91.136719 C 54.109136 87.105599 54.21897 87.672739 55.521484 86.597656 C 57.928098 84.611259 57.871653 80.561789 55.404297 78.240234 C 54.015164 76.933189 52.760812 76.65625 48.236328 76.65625 L 43.941406 76.65625 z M 48.724609 79.847656 C 50.098936 79.852369 51.936978 79.982045 52.441406 80.173828 C 53.407624 80.541184 54.34132 82.45079 54.03125 83.427734 C 53.91853 83.782882 53.33948 84.277458 52.746094 84.525391 C 52.152706 84.773323 50.667106 84.976562 49.443359 84.976562 L 47.216797 84.976562 L 47.113281 82.546875 C 47.055371 81.211426 47.067295 80.060831 47.140625 79.988281 C 47.242583 79.887412 47.900014 79.844828 48.724609 79.847656 z " />
  <path
     style="fill:#000000"
     d="M 27.647183,92.937262 C 26.004989,92.284355 24.411975,90.284679 23.780789,88.083864 23.634184,87.572683 23.494545,84.834462 23.47048,81.998928 l -0.04376,-5.155518 1.550229,0.09452 c 0.852626,0.05199 1.588652,0.132219 1.635613,0.178293 0.04696,0.04608 0.158068,2.350506 0.246902,5.120959 0.173332,5.40561 0.443451,6.448715 1.920571,7.416561 0.962963,0.630958 2.787303,0.426177 3.952337,-0.443646 1.065409,-0.795443 1.526608,-2.322805 1.616742,-5.354204 0.04187,-1.408 0.116679,-2.92 0.166252,-3.36 0.04957,-0.44 0.108511,-1.412 0.130973,-2.16 l 0.04084,-1.36 h 1.614705 1.614705 l -0.04595,4.575916 c -0.05613,5.58937 -0.287478,6.953187 -1.468679,8.658045 -1.730235,2.497294 -5.993213,3.825354 -8.754777,2.727406 z"
     id="path4" />
  <path
     style="fill:#000000"
     d="m 84.98836,93.209607 c -0.224386,-0.270368 -0.445667,-2.704062 -0.576124,-6.336341 -0.116496,-3.243554 -0.353923,-6.077371 -0.527614,-6.297371 -0.179875,-0.227832 -1.028928,-0.4 -1.97262,-0.4 -1.922502,0 -2.424818,-0.372586 -2.424818,-1.798574 0,-1.298742 0.01013,-1.30084 7.6,-1.574812 l 5.84,-0.210807 v 1.285925 c 0,0.707258 0.07946,1.492999 0.176582,1.746089 0.13536,0.352742 -0.236751,0.508745 -1.59399,0.668261 -0.973815,0.114453 -2.474725,0.35911 -3.335356,0.543682 l -1.564784,0.335587 0.614311,2.302324 c 0.648034,2.428714 0.823714,7.24848 0.328863,9.022325 -0.211967,0.759817 -0.46928,0.980089 -1.233975,1.056341 -0.537258,0.05357 -1.127891,-0.09853 -1.330475,-0.342629 z"
     id="path3" />
  <path
     style="fill:#000000"
     d="m 74.687184,93.615895 c -0.264,-0.17061 -2.954119,-0.312405 -5.978042,-0.3151 l -5.498042,-0.0049 -0.128244,-3.12 c -0.154309,-3.754148 0.03229,-12.856919 0.271494,-13.243955 0.09383,-0.151825 2.898106,-0.276045 6.231719,-0.276045 h 6.061115 v 1.6 1.6 l -2.48,0.0374 c -1.364,0.02057 -3.416,0.128572 -4.56,0.24 -1.713054,0.166856 -2.072944,0.30139 -2.04,0.762597 0.022,0.308 0.058,1.070939 0.08,1.69542 l 0.04,1.13542 3.361099,-0.05369 c 3.800077,-0.0607 4.318901,0.158176 4.318901,1.822032 v 1.080818 l -2.32,0.03242 c -1.276,0.01783 -2.778398,0.0076 -3.338661,-0.02268 -1.752345,-0.09479 -2.390869,0.468667 -2.278734,2.010826 l 0.0974,1.339432 4.378116,0.08889 4.378117,0.08889 0.372309,1.128106 c 0.363479,1.101352 0.2122,2.698998 -0.254639,2.689218 -0.128647,-0.0027 -0.449903,-0.14449 -0.713903,-0.3151 z"
     id="path2" />
  <path
     style="fill:#000000"
     d="M 7.9412054,92.848213 C 6.6949176,92.219818 5.427421,91.431853 5.1245463,91.097181 4.5971798,90.514447 4.6202009,90.460048 5.6682951,89.81229 7.072858,88.944222 7.5211389,88.961068 8.957627,89.935895 c 2.652528,1.800054 6.840441,0.359341 5.159379,-1.774914 C 13.704688,87.637506 12.438718,87.086365 10.847183,86.73746 9.264204,86.39043 6.5486284,84.665583 6.0416063,83.685111 5.3846133,82.414626 5.4506916,80.850888 6.2142955,79.598433 7.0451882,78.235612 9.668207,76.983276 11.700653,76.979021 c 2.710252,-0.0057 5.938272,1.930645 5.191692,3.11422 -0.6896,1.093244 -1.250831,1.167811 -3.08081,0.409327 -1.998833,-0.82847 -3.625936,-0.72361 -4.545925,0.292966 -0.442914,0.489414 -0.478679,0.739334 -0.184476,1.289059 0.396228,0.740358 1.172931,1.110725 3.775809,1.800475 3.875507,1.026991 5.678787,2.705588 5.395891,5.022806 -0.309373,2.534087 -2.831951,4.494214 -6.285651,4.88416 -1.588487,0.179351 -1.980821,0.08737 -4.0259776,-0.943821 z"
     id="path1"
     inkscape:export-filename="SurEtBon.png"
     inkscape:export-xdpi="1166.49"
     inkscape:export-ydpi="1166.49" />
</svg>
